<svg width="20" height="20" viewBox="0 0 20 20" fill="none" xmlns="http://www.w3.org/2000/svg">
<path d="M13.7487 6.2487V6.25703M3.33203 6.66536C3.33203 5.78131 3.68322 4.93346 4.30834 4.30834C4.93346 3.68322 5.78131 3.33203 6.66536 3.33203H13.332C14.2161 3.33203 15.0639 3.68322 15.6891 4.30834C16.3142 4.93346 16.6654 5.78131 16.6654 6.66536V13.332C16.6654 14.2161 16.3142 15.0639 15.6891 15.6891C15.0639 16.3142 14.2161 16.6654 13.332 16.6654H6.66536C5.78131 16.6654 4.93346 16.3142 4.30834 15.6891C3.68322 15.0639 3.33203 14.2161 3.33203 13.332V6.66536ZM7.4987 9.9987C7.4987 10.6617 7.76209 11.2976 8.23093 11.7665C8.69977 12.2353 9.33566 12.4987 9.9987 12.4987C10.6617 12.4987 11.2976 12.2353 11.7665 11.7665C12.2353 11.2976 12.4987 10.6617 12.4987 9.9987C12.4987 9.33566 12.2353 8.69977 11.7665 8.23093C11.2976 7.76209 10.6617 7.4987 9.9987 7.4987C9.33566 7.4987 8.69977 7.76209 8.23093 8.23093C7.76209 8.69977 7.4987 9.33566 7.4987 9.9987Z" stroke="white" stroke-width="1.5" stroke-linecap="round" stroke-linejoin="round"/>
</svg>
