<svg width="20" height="20" viewBox="0 0 20 20" fill="none" xmlns="http://www.w3.org/2000/svg">
<path d="M3.5 6.3878C3.5 6.00471 3.65218 5.63731 3.92307 5.36643C4.19395 5.09554 4.56135 4.94336 4.94444 4.94336H15.0556C15.4386 4.94336 15.806 5.09554 16.0769 5.36643C16.3478 5.63731 16.5 6.00471 16.5 6.3878M3.5 6.3878V13.61C3.5 13.9931 3.65218 14.3605 3.92307 14.6314C4.19395 14.9023 4.56135 15.0545 4.94444 15.0545H15.0556C15.4386 15.0545 15.806 14.9023 16.0769 14.6314C16.3478 14.3605 16.5 13.9931 16.5 13.61V6.3878M3.5 6.3878L10 10.7211L16.5 6.3878" stroke="white" stroke-width="1.5" stroke-linecap="round" stroke-linejoin="round"/>
</svg>
