<svg width="20" height="20" viewBox="0 0 20 20" fill="none" xmlns="http://www.w3.org/2000/svg">
<path d="M6.66667 16.6667L10 9.16667M8.91666 11.6667C9.28083 12.7192 10.1083 13.3333 11.0417 13.3333C12.7675 13.3333 14.1667 12.0383 14.1667 10C14.1674 9.39152 14.0348 8.79027 13.7783 8.23851C13.5218 7.68675 13.1475 7.19786 12.6818 6.80623C12.2161 6.41459 11.6703 6.1297 11.0827 5.97158C10.4951 5.81347 9.88007 5.78596 9.28072 5.891C8.68138 5.99604 8.11231 6.23108 7.61352 6.57959C7.11474 6.9281 6.69833 7.38162 6.39358 7.90829C6.08883 8.43495 5.90313 9.02197 5.84953 9.62809C5.79593 10.2342 5.87573 10.8447 6.08333 11.4167M2.5 10C2.5 10.9849 2.69399 11.9602 3.0709 12.8701C3.44781 13.7801 4.00026 14.6069 4.6967 15.3033C5.39314 15.9997 6.21993 16.5522 7.12987 16.9291C8.03982 17.306 9.01509 17.5 10 17.5C10.9849 17.5 11.9602 17.306 12.8701 16.9291C13.7801 16.5522 14.6069 15.9997 15.3033 15.3033C15.9997 14.6069 16.5522 13.7801 16.9291 12.8701C17.306 11.9602 17.5 10.9849 17.5 10C17.5 9.01509 17.306 8.03982 16.9291 7.12987C16.5522 6.21993 15.9997 5.39314 15.3033 4.6967C14.6069 4.00026 13.7801 3.44781 12.8701 3.0709C11.9602 2.69399 10.9849 2.5 10 2.5C9.01509 2.5 8.03982 2.69399 7.12987 3.0709C6.21993 3.44781 5.39314 4.00026 4.6967 4.6967C4.00026 5.39314 3.44781 6.21993 3.0709 7.12987C2.69399 8.03982 2.5 9.01509 2.5 10Z" stroke="white" stroke-width="1.5" stroke-linecap="round" stroke-linejoin="round"/>
</svg>
