<svg width="20" height="20" viewBox="0 0 20 20" fill="none" xmlns="http://www.w3.org/2000/svg">
<path d="M7.83148 8.56077C7.83148 8.6565 7.86951 8.74831 7.9372 8.816C8.0049 8.8837 8.09671 8.92172 8.19244 8.92172C8.28817 8.92172 8.37998 8.8837 8.44768 8.816C8.51537 8.74831 8.5534 8.6565 8.5534 8.56077V7.83885C8.5534 7.74312 8.51537 7.65131 8.44768 7.58362C8.37998 7.51593 8.28817 7.4779 8.19244 7.4779C8.09671 7.4779 8.0049 7.51593 7.9372 7.58362C7.86951 7.65131 7.83148 7.74312 7.83148 7.83885V8.56077ZM7.83148 8.56077C7.83148 9.51808 8.21178 10.4362 8.8887 11.1131C9.56563 11.79 10.4837 12.1703 11.4411 12.1703M11.4411 12.1703H12.163C12.2587 12.1703 12.3505 12.1323 12.4182 12.0646C12.4859 11.9969 12.5239 11.9051 12.5239 11.8094C12.5239 11.7136 12.4859 11.6218 12.4182 11.5541C12.3505 11.4865 12.2587 11.4484 12.163 11.4484H11.4411C11.3453 11.4484 11.2535 11.4865 11.1858 11.5541C11.1181 11.6218 11.0801 11.7136 11.0801 11.8094C11.0801 11.9051 11.1181 11.9969 11.1858 12.0646C11.2535 12.1323 11.3453 12.1703 11.4411 12.1703ZM3.5 16.5018L4.69116 13.7585C3.77986 12.4649 3.37198 10.8832 3.54407 9.31017C3.71616 7.73717 4.45638 6.28104 5.62583 5.21505C6.79527 4.14906 8.31354 3.54649 9.89571 3.52041C11.4779 3.49434 13.0152 4.04657 14.2191 5.07345C15.423 6.10033 16.2108 7.53128 16.4347 9.09775C16.6585 10.6642 16.3029 12.2585 15.4348 13.5815C14.5666 14.9044 13.2454 15.8651 11.7193 16.2831C10.1931 16.7012 8.56684 16.5479 7.14567 15.8521L3.5 16.5018Z" stroke="white" stroke-width="1.5" stroke-linecap="round" stroke-linejoin="round"/>
</svg>
