<svg width="20" height="20" viewBox="0 0 20 20" fill="none" xmlns="http://www.w3.org/2000/svg">
<path d="M1.66406 6.66536C1.66406 5.78131 2.01525 4.93346 2.64037 4.30834C3.26549 3.68322 4.11334 3.33203 4.9974 3.33203H14.9974C15.8815 3.33203 16.7293 3.68322 17.3544 4.30834C17.9795 4.93346 18.3307 5.78131 18.3307 6.66536V13.332C18.3307 14.2161 17.9795 15.0639 17.3544 15.6891C16.7293 16.3142 15.8815 16.6654 14.9974 16.6654H4.9974C4.11334 16.6654 3.26549 16.3142 2.64037 15.6891C2.01525 15.0639 1.66406 14.2161 1.66406 13.332V6.66536Z" stroke="white" stroke-width="1.5" stroke-linecap="round" stroke-linejoin="round"/>
<path d="M8.33073 7.4987L12.4974 9.9987L8.33073 12.4987V7.4987Z" stroke="white" stroke-width="1.5" stroke-linecap="round" stroke-linejoin="round"/>
</svg>
